<svg width="56" height="18" viewBox="0 0 56 18" fill="none" xmlns="http://www.w3.org/2000/svg">
<g clip-path="url(#clip0_1_984)">
<path d="M29.5134 4.79318C29.5134 5.42286 29.006 5.92989 28.3763 5.92989C27.7467 5.92989 27.2396 5.42286 27.2396 4.79318C27.2396 4.16351 27.7294 3.65648 28.3763 3.65648C29.0238 3.67395 29.5134 4.18115 29.5134 4.79318ZM24.8261 7.08442V7.36432C24.8261 7.36432 24.2841 6.6644 23.1298 6.6644C21.2236 6.6644 19.7368 8.11612 19.7368 10.1273C19.7368 12.1212 21.2062 13.5902 23.1298 13.5902C24.3016 13.5902 24.8261 12.8731 24.8261 12.8731V13.1703C24.8261 13.3103 24.9313 13.4149 25.0711 13.4149H26.4875V6.83877H25.0711C24.9313 6.83929 24.8261 6.96194 24.8261 7.08442ZM24.8261 11.2991C24.564 11.684 24.0392 12.0163 23.4097 12.0163C22.2904 12.0163 21.4333 11.3168 21.4333 10.1273C21.4333 8.93799 22.2904 8.23842 23.4097 8.23842C24.0219 8.23842 24.5815 8.5882 24.8261 8.95546V11.2991ZM27.537 6.83929H29.2159V13.4154H27.537V6.83929ZM52.6166 6.66423C51.4623 6.66423 50.92 7.36414 50.92 7.36414V3.67395H49.2411V13.4154H50.6579C50.7978 13.4154 50.9025 13.293 50.9025 13.1705V12.8733C50.9025 12.8733 51.4448 13.5903 52.5988 13.5903C54.5053 13.5903 55.9918 12.1217 55.9918 10.1278C55.9918 8.13394 54.5053 6.66423 52.6166 6.66423ZM52.3368 11.9987C51.6894 11.9987 51.1824 11.6667 50.92 11.2816V8.93799C51.1824 8.5882 51.742 8.22095 52.3368 8.22095C53.456 8.22095 54.313 8.92052 54.313 10.1098C54.313 11.2991 53.4562 11.9987 52.3368 11.9987ZM48.3669 9.51543V13.4329H46.6876V9.70761C46.6876 8.6235 46.3379 8.18601 45.3941 8.18601C44.887 8.18601 44.3622 8.44843 44.0293 8.83333V13.4156H42.3508V6.83947H43.6796C43.8195 6.83947 43.9245 6.96194 43.9245 7.08442V7.36432C44.4142 6.85694 45.0612 6.6644 45.7082 6.6644C46.4429 6.6644 47.0551 6.87458 47.5448 7.29425C48.1392 7.78398 48.3669 8.41349 48.3669 9.51543ZM38.2752 6.66423C37.1212 6.66423 36.5789 7.36414 36.5789 7.36414V3.67395H34.9001V13.4154H36.3165C36.4564 13.4154 36.5614 13.293 36.5614 13.1705V12.8733C36.5614 12.8733 37.1038 13.5903 38.2578 13.5903C40.1643 13.5903 41.6508 12.1217 41.6508 10.1278C41.6682 8.13377 40.1817 6.66423 38.2752 6.66423ZM37.9953 11.9987C37.3484 11.9987 36.8413 11.6667 36.5789 11.2816V8.93799C36.8413 8.5882 37.401 8.22095 37.9953 8.22095C39.1149 8.22095 39.9717 8.92052 39.9717 10.1098C39.9717 11.2991 39.1149 11.9987 37.9953 11.9987ZM33.4484 6.66423C33.9554 6.66423 34.2178 6.75193 34.2178 6.75193V8.30831C34.2178 8.30831 32.8187 7.83605 31.9444 8.83316V13.4327H30.2652V6.83929H31.682C31.8219 6.83929 31.9266 6.96177 31.9266 7.08425V7.36414C32.2418 6.99671 32.9239 6.66423 33.4484 6.66423ZM16.0118 12.8207C15.9245 12.6109 15.837 12.3836 15.7496 12.191C15.6095 11.8764 15.4695 11.5788 15.3474 11.2991L15.3299 11.2816C14.123 8.65809 12.829 5.99995 11.4647 3.37676L11.4123 3.27157C11.2688 2.99945 11.1289 2.72541 10.9928 2.44953C10.8177 2.13452 10.643 1.80256 10.3631 1.48754C9.80348 0.787977 8.99891 0.403076 8.1421 0.403076C7.26747 0.403076 6.48055 0.787979 5.90364 1.45243C5.64122 1.76709 5.44868 2.0994 5.27396 2.41442C5.13747 2.69012 4.99762 2.96415 4.85447 3.23646L4.80188 3.34164C3.45517 5.96483 2.14357 8.62315 0.936805 11.2465L0.919162 11.2813C0.79686 11.5615 0.656736 11.8587 0.516789 12.1732C0.429431 12.3658 0.342072 12.5756 0.254714 12.8029C0.0272338 13.4499 -0.0428308 14.0621 0.0448767 14.6919C0.237239 16.0037 1.11152 17.1051 2.31846 17.5952C2.77325 17.7877 3.2455 17.8751 3.73506 17.8751C3.87501 17.8751 4.04973 17.8576 4.18985 17.84C4.76711 17.7701 5.36167 17.5779 5.93893 17.2456C6.65597 16.8432 7.33806 16.2663 8.10751 15.4268C8.87696 16.2663 9.57652 16.8432 10.2761 17.2456C10.8535 17.5779 11.4479 17.7701 12.025 17.84C12.1649 17.8578 12.34 17.8751 12.48 17.8751C12.9697 17.8751 13.4592 17.7877 13.8964 17.5952C15.1208 17.1051 15.9776 15.9862 16.1701 14.6919C16.309 14.0799 16.2391 13.468 16.0118 12.8207ZM8.12446 13.7301C7.17994 12.5408 6.56773 11.4216 6.35807 10.4774C6.27072 10.075 6.25307 9.72526 6.30566 9.41042C6.34043 9.13053 6.44561 8.88557 6.58555 8.67574C6.91787 8.20383 7.47748 7.90628 8.12463 7.90628C8.77196 7.90628 9.34904 8.18618 9.66388 8.67574C9.80383 8.88557 9.90866 9.1307 9.94395 9.41042C9.99619 9.72544 9.97872 10.0925 9.89136 10.4774C9.68083 11.4041 9.06862 12.5235 8.12446 13.7301ZM15.1023 14.5522C14.98 15.4616 14.3678 16.2488 13.511 16.5986C13.0913 16.7733 12.6363 16.8259 12.1819 16.7733C11.7448 16.7207 11.3073 16.5808 10.8528 16.3187C10.2231 15.9686 9.59365 15.4268 8.85897 14.622C10.0131 13.2056 10.7127 11.9111 10.9751 10.7571C11.0976 10.2148 11.1153 9.72526 11.0625 9.2703C10.9928 8.83316 10.8352 8.43078 10.5904 8.081C10.0479 7.29373 9.13834 6.83929 8.12428 6.83929C7.11023 6.83929 6.20065 7.31155 5.65851 8.081C5.41373 8.43078 5.25614 8.83316 5.18625 9.2703C5.11637 9.72526 5.13366 10.2323 5.27361 10.7571C5.53586 11.9111 6.2529 13.2229 7.3896 14.6395C6.67257 15.4441 6.02541 15.9864 5.39574 16.3362C4.94095 16.5986 4.50399 16.7386 4.06685 16.7908C3.59476 16.8434 3.1398 16.7733 2.73761 16.6161C1.8808 16.2663 1.26859 15.479 1.14629 14.5696C1.09388 14.1325 1.12864 13.6953 1.30371 13.2056C1.35595 13.0305 1.44366 12.8558 1.53102 12.646C1.65349 12.3661 1.79309 12.0686 1.93321 11.7714L1.95086 11.7366C3.15745 9.13052 4.45157 6.47221 5.79829 3.88396L5.8507 3.77878C5.99082 3.5167 6.13077 3.23681 6.27055 2.97438C6.41049 2.69449 6.56773 2.43206 6.76027 2.20458C7.12752 1.78526 7.61708 1.5576 8.1594 1.5576C8.70172 1.5576 9.19128 1.78526 9.55853 2.20458C9.75107 2.43259 9.90831 2.69501 10.0483 2.97438C10.1884 3.23681 10.3283 3.5167 10.4679 3.77878L10.5205 3.88396C11.8467 6.48296 13.1236 9.10681 14.3506 11.7541V11.7715C14.4908 12.0518 14.6131 12.3663 14.753 12.6465C14.8404 12.856 14.9279 13.0307 14.9803 13.2058C15.1199 13.6601 15.1723 14.0975 15.1023 14.5522Z" fill="#FF5A5F"/>
</g>
<defs>
<clipPath id="clip0_1_984">
<rect width="56" height="17.472" fill="white" transform="translate(0 0.403198)"/>
</clipPath>
</defs>
</svg>
