<svg width="48" height="48" viewBox="0 0 48 48" fill="none" xmlns="http://www.w3.org/2000/svg">
<circle cx="24" cy="24" r="24" fill="#E8FAFA"/>
<path d="M27.0857 23.6572C27.8431 23.6572 28.4572 23.0432 28.4572 22.2858C28.4572 21.5284 27.8431 20.9144 27.0857 20.9144C26.3283 20.9144 25.7143 21.5284 25.7143 22.2858C25.7143 23.0432 26.3283 23.6572 27.0857 23.6572Z" fill="#23CEC9"/>
<path d="M33.6 15.4286C33.6 15.1558 33.4917 14.8942 33.2988 14.7013C33.1059 14.5084 32.8443 14.4 32.5715 14.4H20.5715V33.6H32.5715C32.8443 33.6 33.1059 33.4917 33.2988 33.2988C33.4917 33.1059 33.6 32.8442 33.6 32.5715V15.4286ZM27.0858 29.1429C26.0686 29.1429 25.0743 28.8413 24.2285 28.2762C23.3828 27.7111 22.7236 26.9078 22.3344 25.9681C21.9451 25.0284 21.8433 23.9943 22.0417 22.9967C22.2402 21.9991 22.73 21.0827 23.4492 20.3635C24.1684 19.6442 25.0848 19.1544 26.0824 18.956C27.0801 18.7575 28.1141 18.8594 29.0538 19.2486C29.9936 19.6379 30.7968 20.2971 31.3619 21.1428C31.927 21.9885 32.2286 22.9829 32.2286 24C32.2271 25.3635 31.6847 26.6707 30.7206 27.6349C29.7565 28.599 28.4493 29.1413 27.0858 29.1429Z" fill="#23CEC9"/>
<path d="M27.0858 19.5429C26.2391 19.542 25.4097 19.7825 24.6948 20.2361C23.9799 20.6897 23.4091 21.3377 23.0492 22.1041C22.6894 22.8705 22.5555 23.7236 22.6632 24.5634C22.7709 25.4032 23.1157 26.1949 23.6572 26.8458V26.0572C23.6581 25.5007 23.852 24.9618 24.2059 24.5324C24.5598 24.1029 25.0517 23.8096 25.5978 23.7025C25.3196 23.4111 25.1332 23.0445 25.0615 22.6481C24.9898 22.2518 25.036 21.8431 25.1945 21.4728C25.3529 21.1024 25.6166 20.7868 25.9528 20.5649C26.289 20.3431 26.683 20.2249 27.0858 20.2249C27.4886 20.2249 27.8825 20.3431 28.2187 20.5649C28.5549 20.7868 28.8186 21.1024 28.9771 21.4728C29.1355 21.8431 29.1818 22.2518 29.1101 22.6481C29.0384 23.0445 28.8519 23.4111 28.5738 23.7025C29.1198 23.8096 29.6118 24.1029 29.9657 24.5324C30.3196 24.9618 30.5135 25.5007 30.5143 26.0572V26.8458C31.0559 26.1949 31.4007 25.4032 31.5084 24.5634C31.616 23.7236 31.4821 22.8705 31.1223 22.1041C30.7625 21.3377 30.1917 20.6897 29.4767 20.2361C28.7618 19.7825 27.9324 19.542 27.0858 19.5429Z" fill="#23CEC9"/>
<path d="M28.1143 24.3429H26.0572C25.6027 24.3435 25.167 24.5243 24.8456 24.8456C24.5242 25.167 24.3434 25.6027 24.3429 26.0572V27.5061C25.1244 28.1222 26.0906 28.4572 27.0858 28.4572C28.0809 28.4572 29.0471 28.1222 29.8286 27.5061V26.0572C29.8281 25.6027 29.6473 25.167 29.3259 24.8456C29.0045 24.5243 28.5688 24.3435 28.1143 24.3429Z" fill="#23CEC9"/>
<path d="M17.8286 21.9429C17.8286 21.7611 17.7564 21.5867 17.6278 21.4581C17.4992 21.3295 17.3247 21.2572 17.1429 21.2572H15.0857C14.9039 21.2572 14.7295 21.3295 14.6009 21.4581C14.4723 21.5867 14.4 21.7611 14.4 21.9429C14.4 22.1248 14.4723 22.2992 14.6009 22.4278C14.7295 22.5564 14.9039 22.6287 15.0857 22.6287H17.1429C17.3247 22.6287 17.4992 22.5564 17.6278 22.4278C17.7564 22.2992 17.8286 22.1248 17.8286 21.9429Z" fill="#23CEC9"/>
<path d="M16.4572 15.4286V16.4572H17.1429C17.5066 16.4572 17.8554 16.6017 18.1126 16.8588C18.3698 17.116 18.5143 17.4649 18.5143 17.8286C18.5143 18.1923 18.3698 18.5411 18.1126 18.7983C17.8554 19.0555 17.5066 19.2 17.1429 19.2H16.4572V20.5715H17.1429C17.5066 20.5715 17.8554 20.7159 18.1126 20.9731C18.3698 21.2303 18.5143 21.5792 18.5143 21.9429C18.5143 22.3066 18.3698 22.6554 18.1126 22.9126C17.8554 23.1698 17.5066 23.3143 17.1429 23.3143H16.4572V25.0286H17.1429C17.5066 25.0286 17.8554 25.1731 18.1126 25.4303C18.3698 25.6875 18.5143 26.0363 18.5143 26.4C18.5143 26.7638 18.3698 27.1126 18.1126 27.3698C17.8554 27.627 17.5066 27.7715 17.1429 27.7715H16.4572V29.1429H17.1429C17.5066 29.1429 17.8554 29.2874 18.1126 29.5446C18.3698 29.8018 18.5143 30.1506 18.5143 30.5143C18.5143 30.878 18.3698 31.2269 18.1126 31.4841C17.8554 31.7412 17.5066 31.8857 17.1429 31.8857H16.4572V32.5715C16.4572 32.8442 16.5655 33.1059 16.7584 33.2988C16.9513 33.4917 17.2129 33.6 17.4857 33.6H19.8857V14.4H17.4857C17.2129 14.4 16.9513 14.5084 16.7584 14.7013C16.5655 14.8942 16.4572 15.1558 16.4572 15.4286Z" fill="#23CEC9"/>
<path d="M15.0857 18.5144H17.1429C17.3247 18.5144 17.4992 18.4421 17.6278 18.3135C17.7564 18.1849 17.8286 18.0105 17.8286 17.8287C17.8286 17.6468 17.7564 17.4724 17.6278 17.3438C17.4992 17.2152 17.3247 17.1429 17.1429 17.1429H15.0857C14.9039 17.1429 14.7295 17.2152 14.6009 17.3438C14.4723 17.4724 14.4 17.6468 14.4 17.8287C14.4 18.0105 14.4723 18.1849 14.6009 18.3135C14.7295 18.4421 14.9039 18.5144 15.0857 18.5144Z" fill="#23CEC9"/>
<path d="M17.8286 26.4001C17.8286 26.2182 17.7564 26.0438 17.6278 25.9152C17.4992 25.7866 17.3247 25.7144 17.1429 25.7144H15.0857C14.9039 25.7144 14.7295 25.7866 14.6009 25.9152C14.4723 26.0438 14.4 26.2182 14.4 26.4001C14.4 26.582 14.4723 26.7564 14.6009 26.885C14.7295 27.0136 14.9039 27.0858 15.0857 27.0858H17.1429C17.3247 27.0858 17.4992 27.0136 17.6278 26.885C17.7564 26.7564 17.8286 26.582 17.8286 26.4001Z" fill="#23CEC9"/>
<path d="M17.8286 30.5143C17.8286 30.3324 17.7564 30.158 17.6278 30.0294C17.4992 29.9008 17.3247 29.8286 17.1429 29.8286H15.0857C14.9039 29.8286 14.7295 29.9008 14.6009 30.0294C14.4723 30.158 14.4 30.3324 14.4 30.5143C14.4 30.6962 14.4723 30.8706 14.6009 30.9992C14.7295 31.1278 14.9039 31.2 15.0857 31.2H17.1429C17.3247 31.2 17.4992 31.1278 17.6278 30.9992C17.7564 30.8706 17.8286 30.6962 17.8286 30.5143Z" fill="#23CEC9"/>
</svg>
