<svg width="26" height="26" viewBox="0 0 26 26" fill="none" xmlns="http://www.w3.org/2000/svg">
<g id="hierarchy 1" clip-path="url(#clip0_1_705)">
<path id="Vector" d="M13 4.46668C14.1782 4.46668 15.1333 3.51155 15.1333 2.33335C15.1333 1.15514 14.1782 0.200012 13 0.200012C11.8218 0.200012 10.8667 1.15514 10.8667 2.33335C10.8667 3.51155 11.8218 4.46668 13 4.46668Z" fill="#5526B3"/>
<path id="Vector_2" d="M17.2667 8.46675C17.2667 6.84862 15.9515 5.53342 14.3333 5.53342H11.6667C10.0485 5.53342 8.73334 6.84862 8.73334 8.46675V9.00008C8.73334 9.44168 9.09174 9.80008 9.53334 9.80008H16.4667C16.9083 9.80008 17.2667 9.44168 17.2667 9.00008V8.46675Z" fill="#5526B3"/>
<path id="Vector_3" d="M4.46666 20.4667C5.64487 20.4667 6.59999 19.5115 6.59999 18.3333C6.59999 17.1551 5.64487 16.2 4.46666 16.2C3.28845 16.2 2.33333 17.1551 2.33333 18.3333C2.33333 19.5115 3.28845 20.4667 4.46666 20.4667Z" fill="#5526B3"/>
<path id="Vector_4" d="M5.8 21.5333H3.13333C1.5152 21.5333 0.199997 22.8485 0.199997 24.4667V25C0.199997 25.4416 0.558397 25.8 0.999997 25.8H7.93333C8.37493 25.8 8.73333 25.4416 8.73333 25V24.4667C8.73333 22.8485 7.41813 21.5333 5.8 21.5333Z" fill="#5526B3"/>
<path id="Vector_5" d="M21.5333 20.4667C22.7115 20.4667 23.6667 19.5115 23.6667 18.3333C23.6667 17.1551 22.7115 16.2 21.5333 16.2C20.3551 16.2 19.4 17.1551 19.4 18.3333C19.4 19.5115 20.3551 20.4667 21.5333 20.4667Z" fill="#5526B3"/>
<path id="Vector_6" d="M22.8667 21.5333H20.2C18.5819 21.5333 17.2667 22.8485 17.2667 24.4667V25C17.2667 25.4416 17.6251 25.8 18.0667 25.8H25C25.4416 25.8 25.8 25.4416 25.8 25V24.4667C25.8 22.8485 24.4848 21.5333 22.8667 21.5333Z" fill="#5526B3"/>
<path id="Vector_7" d="M21.5333 15.1333C21.0917 15.1333 20.7333 14.7749 20.7333 14.3333V14.0667H5.26666V14.3333C5.26666 14.7749 4.90826 15.1333 4.46666 15.1333C4.02506 15.1333 3.66666 14.7749 3.66666 14.3333V13.2667C3.66666 12.8251 4.02506 12.4667 4.46666 12.4667H21.5333C21.9749 12.4667 22.3333 12.8251 22.3333 13.2667V14.3333C22.3333 14.7749 21.9749 15.1333 21.5333 15.1333Z" fill="#5526B3"/>
<path id="Vector_8" d="M13 14.0667C12.5584 14.0667 12.2 13.7083 12.2 13.2667V11.6667C12.2 11.2251 12.5584 10.8667 13 10.8667C13.4416 10.8667 13.8 11.2251 13.8 11.6667V13.2667C13.8 13.7083 13.4416 14.0667 13 14.0667Z" fill="#5526B3"/>
</g>
<defs>
<clipPath id="clip0_1_705">
<rect width="25.6" height="25.6" fill="white" transform="translate(0.199997 0.200012)"/>
</clipPath>
</defs>
</svg>
