<svg width="57" height="18" viewBox="0 0 57 18" fill="none" xmlns="http://www.w3.org/2000/svg">
<g id="hubspot 1" clip-path="url(#clip0_1_988)">
<path id="Vector" d="M0.176514 4.01819H2.12908V8.35622H6.24715V4.01819H8.20223V14.6667H6.24715V10.2376H2.12908V14.6667H0.176514V4.01819ZM14.3879 11.1983C14.3879 12.0897 13.6617 12.8151 12.7705 12.8151C11.879 12.8151 11.1532 12.0897 11.1532 11.1983V6.61377H9.30145V11.1983C9.30145 13.111 10.8577 14.6667 12.7705 14.6667C14.6828 14.6667 16.239 13.111 16.239 11.1983V6.61377H14.3879V11.1983ZM21.4083 6.66747C20.4897 6.66747 19.8486 6.93402 19.2294 7.54181V4.01819H17.3717V10.5484C17.3717 12.9927 19.139 14.6667 21.1245 14.6667C23.3317 14.6667 25.2657 12.9629 25.2657 10.6672C25.2657 8.40063 23.4824 6.66747 21.4083 6.66747ZM21.4544 12.9481C20.1956 12.9481 19.233 11.8968 19.233 10.6672C19.233 9.43739 20.1956 8.38575 21.4544 8.38575C22.5211 8.38575 23.4842 9.43739 23.4842 10.6672C23.4842 11.8968 22.5211 12.9481 21.4544 12.9481ZM28.3859 7.13549C28.3859 6.20164 29.0081 5.90556 29.6893 5.90556C30.2377 5.90556 30.9634 6.32031 31.437 6.82409L32.6514 5.40211C32.0445 4.58749 30.8152 4.02442 29.8078 4.02442C27.793 4.02442 26.3413 5.19474 26.3413 7.13549C26.3413 10.735 30.7707 9.59402 30.7707 11.6091C30.7707 12.2306 30.1635 12.7792 29.4677 12.7792C28.3711 12.7792 28.0154 12.2459 27.512 11.6829L26.1637 13.0751C27.0234 14.127 28.0896 14.6605 29.3637 14.6605C31.2745 14.6605 32.8151 13.4754 32.8151 11.6235C32.8151 7.62406 28.3859 8.86853 28.3859 7.13549ZM37.7057 6.56313C35.7204 6.56313 33.9529 8.23613 33.9529 10.681V17.2281H35.8106V13.6877C36.4298 14.2951 37.0707 14.562 37.9895 14.562C40.0635 14.562 41.8471 12.8291 41.8471 10.5625C41.8471 8.26653 39.9126 6.56313 37.7057 6.56313ZM38.0358 12.844C36.7771 12.844 35.8144 11.7913 35.8144 10.5625C35.8144 9.33272 36.7771 8.28108 38.0358 8.28108C39.1022 8.28108 40.0655 9.33272 40.0655 10.5625C40.0655 11.7913 39.1022 12.844 38.0358 12.844ZM55.5213 12.9481C54.4255 12.9481 54.1145 12.4743 54.1145 11.7482V8.53384H55.8177V6.90459H54.1145V4.75647L52.2338 5.60063V12.1481C52.2338 13.8222 53.3888 14.6667 54.9731 14.6667C55.2101 14.6667 55.5363 14.6514 55.7143 14.6075L56.1736 12.919C55.9662 12.9333 55.7293 12.9481 55.5213 12.9481Z" fill="#45535E"/>
<path id="Vector_2" d="M50.6222 8.62851C50.2661 8.01579 49.7652 7.52459 49.1389 7.15479C48.6709 6.88234 48.1856 6.70942 47.6387 6.63515V4.68828C48.1856 4.45608 48.525 3.94212 48.525 3.34253C48.525 2.52528 47.8696 1.86301 47.053 1.86301C46.2357 1.86301 45.5689 2.52528 45.5689 3.34253C45.5689 3.94212 45.8887 4.45608 46.4356 4.68828V6.63603C45.9981 6.69925 45.5444 6.83564 45.1301 7.0452C44.2838 6.40251 41.509 4.29409 39.8857 3.06264C39.9242 2.92384 39.9539 2.78078 39.9539 2.62984C39.9539 1.72465 39.2209 0.990967 38.3153 0.990967C37.4098 0.990967 36.6771 1.72465 36.6771 2.62984C36.6771 3.53492 37.4106 4.26883 38.3161 4.26883C38.625 4.26883 38.9107 4.17848 39.1572 4.02995L39.4998 4.28983L44.2068 7.68133C43.958 7.90981 43.7262 8.16968 43.5408 8.46128C43.1651 9.05573 42.9356 9.70979 42.9356 10.4232V10.5721C42.9356 11.0729 43.0307 11.5458 43.1928 11.9899C43.3355 12.3778 43.5442 12.7304 43.8027 13.0492L42.2405 14.6153C42.0141 14.531 41.7682 14.5137 41.5322 14.5654C41.2963 14.6172 41.0802 14.7358 40.9098 14.9071C40.7919 15.0244 40.6984 15.1641 40.6348 15.3178C40.5712 15.4716 40.5387 15.6365 40.5393 15.8029C40.5394 16.1412 40.6712 16.4591 40.9105 16.6983C41.0278 16.8164 41.1673 16.9099 41.3211 16.9737C41.4748 17.0374 41.6396 17.07 41.806 17.0695C41.9725 17.07 42.1374 17.0374 42.2912 16.9736C42.445 16.9099 42.5846 16.8163 42.7019 16.6983C42.8198 16.5809 42.9133 16.4414 42.9769 16.2877C43.0406 16.134 43.0731 15.9692 43.0727 15.8029C43.0727 15.6719 43.0525 15.5442 43.0144 15.4228L44.6291 13.8079C44.8505 13.9608 45.0896 14.0895 45.3466 14.2005C45.8536 14.4197 46.4131 14.5532 47.0255 14.5532H47.1378C47.8148 14.5532 48.4534 14.3942 49.0538 14.0689C49.6864 13.7252 50.1816 13.2551 50.5556 12.6549C50.9316 12.0532 51.1387 11.3883 51.1387 10.6568V10.6202C51.1387 9.90065 50.9721 9.23675 50.6222 8.62851ZM48.6493 12.0162C48.211 12.5032 47.7073 12.8032 47.1378 12.8032H47.0439C46.7186 12.8032 46.4005 12.7133 46.089 12.5498C45.7379 12.3698 45.471 12.113 45.2526 11.7878C45.0268 11.4687 44.9043 11.1202 44.9043 10.7507V10.6385C44.9043 10.2753 44.974 9.93084 45.1496 9.60556C45.3374 9.24998 45.5911 8.97348 45.9284 8.75364C46.2596 8.53533 46.6133 8.42825 47.0073 8.42825H47.0439C47.4011 8.42825 47.7393 8.49868 48.0585 8.66198C48.3836 8.83611 48.6493 9.074 48.8553 9.38692C49.0553 9.69995 49.1743 10.0376 49.2126 10.4054C49.2186 10.4819 49.2217 10.5602 49.2217 10.635C49.2217 11.1342 49.0309 11.5965 48.6493 12.0162Z" fill="#F8761F"/>
</g>
<defs>
<clipPath id="clip0_1_988">
<rect width="56" height="16.3072" fill="white" transform="translate(0.169922 0.985596)"/>
</clipPath>
</defs>
</svg>
