<svg width="26" height="27" viewBox="0 0 26 27" fill="none" xmlns="http://www.w3.org/2000/svg">
<path d="M22.1429 14.5714C22.1429 14.4501 22.0947 14.3339 22.009 14.2481C21.9232 14.1624 21.807 14.1142 21.6857 14.1142H4.31428C4.19304 14.1142 4.07676 14.1624 3.99103 14.2481C3.9053 14.3339 3.85714 14.4501 3.85714 14.5714V23.2571H22.1429V14.5714ZM13 20.5142C12.515 20.5142 12.0499 20.3216 11.707 19.9787C11.3641 19.6357 11.1714 19.1706 11.1714 18.6857C11.1714 18.2007 11.3641 17.7356 11.707 17.3927C12.0499 17.0497 12.515 16.8571 13 16.8571V17.7714C12.8192 17.7714 12.6424 17.825 12.492 17.9255C12.3417 18.0259 12.2245 18.1687 12.1553 18.3358C12.0861 18.5028 12.068 18.6867 12.1033 18.864C12.1386 19.0414 12.2256 19.2043 12.3535 19.3322C12.4814 19.46 12.6443 19.5471 12.8216 19.5824C12.999 19.6177 13.1828 19.5995 13.3499 19.5303C13.5169 19.4611 13.6597 19.344 13.7602 19.1936C13.8607 19.0433 13.9143 18.8665 13.9143 18.6857H14.8286C14.8286 19.1706 14.6359 19.6357 14.293 19.9787C13.9501 20.3216 13.485 20.5142 13 20.5142Z" fill="#B84DC5"/>
<path d="M13.1234 4.95316C13.0429 4.97755 12.957 4.97755 12.8766 4.95316L9.19656 3.90173L8.94513 5.88573H17.0548L16.8034 3.90173L13.1234 4.95316Z" fill="#B84DC5"/>
<path d="M2.11085 25.0857C2.05763 24.9391 2.0298 24.7845 2.02857 24.6286V24.1714C2.02929 23.9292 2.12585 23.697 2.29715 23.5257C2.46846 23.3544 2.70059 23.2579 2.94285 23.2571V21.9314C2.60914 21.9997 2.2949 22.1416 2.02312 22.347C1.75133 22.5523 1.52887 22.8157 1.372 23.1181C1.21513 23.4204 1.12782 23.754 1.11645 24.0945C1.10508 24.4349 1.16993 24.7736 1.30628 25.0857H2.11085Z" fill="#B84DC5"/>
<path d="M0.199982 26H25.8V26.9143H0.199982V26Z" fill="#B84DC5"/>
<path d="M23.9714 24.1714V24.6286C23.9702 24.7845 23.9424 24.9391 23.8891 25.0857H24.6937C24.8189 24.7971 24.8842 24.486 24.8857 24.1714C24.8844 23.6449 24.7019 23.1348 24.3689 22.7269C24.0359 22.319 23.5728 22.0381 23.0571 21.9314V23.2571C23.2994 23.2579 23.5315 23.3544 23.7028 23.5257C23.8741 23.697 23.9707 23.9292 23.9714 24.1714Z" fill="#B84DC5"/>
<path d="M23.9714 18.2285C23.9706 17.945 23.8824 17.6687 23.7188 17.4372C23.5552 17.2056 23.3241 17.0302 23.0571 16.9348V21.008C23.3739 21.0534 23.682 21.1458 23.9714 21.2823V18.2285Z" fill="#B84DC5"/>
<path d="M2.94283 16.9348C2.67585 17.0302 2.44479 17.2056 2.28117 17.4372C2.11755 17.6687 2.02933 17.945 2.02855 18.2285V21.2823C2.31796 21.1458 2.62612 21.0534 2.94283 21.008V16.9348Z" fill="#B84DC5"/>
<path d="M2.94283 24.6285C2.94283 24.7497 2.991 24.866 3.07673 24.9517C3.16246 25.0375 3.27873 25.0856 3.39998 25.0856H22.6C22.7212 25.0856 22.8375 25.0375 22.9232 24.9517C23.009 24.866 23.0571 24.7497 23.0571 24.6285V24.1714H2.94283V24.6285Z" fill="#B84DC5"/>
<path d="M10.4263 13.2H15.5691C15.6892 13.1112 15.8023 13.0134 15.9074 12.9074C16.2908 12.5266 16.5948 12.0736 16.8019 11.5745C17.0091 11.0755 17.1153 10.5403 17.1143 9.99997V9.08569C17.3568 9.08569 17.5893 8.98936 17.7608 8.8179C17.9322 8.64644 18.0286 8.41388 18.0286 8.1714C18.0286 7.92892 17.9322 7.69637 17.7608 7.5249C17.5893 7.35344 17.3568 7.25712 17.1143 7.25712V6.79997H8.88571V7.25712C8.64322 7.25712 8.41067 7.35344 8.23921 7.5249C8.06775 7.69637 7.97142 7.92892 7.97142 8.1714C7.97142 8.41388 8.06775 8.64644 8.23921 8.8179C8.41067 8.98936 8.64322 9.08569 8.88571 9.08569V9.99997C8.88845 10.6143 9.02816 11.2204 9.29466 11.7739C9.56116 12.3275 9.94775 12.8147 10.4263 13.2ZM14.3714 8.62854C14.3714 8.5073 14.4196 8.39103 14.5053 8.30529C14.591 8.21956 14.7073 8.1714 14.8286 8.1714C14.9498 8.1714 15.0661 8.21956 15.1518 8.30529C15.2375 8.39103 15.2857 8.5073 15.2857 8.62854V9.54283C15.2857 9.66407 15.2375 9.78035 15.1518 9.86608C15.0661 9.95181 14.9498 9.99997 14.8286 9.99997C14.7073 9.99997 14.591 9.95181 14.5053 9.86608C14.4196 9.78035 14.3714 9.66407 14.3714 9.54283V8.62854ZM10.7143 8.62854C10.7143 8.5073 10.7624 8.39103 10.8482 8.30529C10.9339 8.21956 11.0502 8.1714 11.1714 8.1714C11.2927 8.1714 11.4089 8.21956 11.4947 8.30529C11.5804 8.39103 11.6286 8.5073 11.6286 8.62854V9.54283C11.6286 9.66407 11.5804 9.78035 11.4947 9.86608C11.4089 9.95181 11.2927 9.99997 11.1714 9.99997C11.0502 9.99997 10.9339 9.95181 10.8482 9.86608C10.7624 9.78035 10.7143 9.66407 10.7143 9.54283V8.62854ZM11.6286 11.3714C11.6286 11.4852 12.115 11.8285 13 11.8285C13.885 11.8285 14.3714 11.4852 14.3714 11.3714H15.2857C15.2857 12.1531 14.3033 12.7428 13 12.7428C11.6967 12.7428 10.7143 12.1531 10.7143 11.3714H11.6286Z" fill="#B84DC5"/>
<path d="M17.5714 2.91425V6.34282H18.4857V2.68568L13 0.399963L7.51427 2.68568L13 4.05711L17.5714 2.91425Z" fill="#B84DC5"/>
</svg>
