<svg width="48" height="48" viewBox="0 0 48 48" fill="none" xmlns="http://www.w3.org/2000/svg">
<circle cx="24" cy="24" r="24" fill="#F7EBF9"/>
<path d="M30.8571 24.4287C30.8571 24.3377 30.821 24.2505 30.7567 24.1862C30.6924 24.1219 30.6052 24.0858 30.5143 24.0858H17.4857C17.3947 24.0858 17.3075 24.1219 17.2432 24.1862C17.1789 24.2505 17.1428 24.3377 17.1428 24.4287V30.943H30.8571V24.4287ZM24 28.8858C23.6362 28.8858 23.2874 28.7413 23.0302 28.4841C22.773 28.2269 22.6285 27.8781 22.6285 27.5144C22.6285 27.1507 22.773 26.8018 23.0302 26.5446C23.2874 26.2874 23.6362 26.143 24 26.143V26.8287C23.8643 26.8287 23.7318 26.8689 23.619 26.9442C23.5062 27.0196 23.4183 27.1267 23.3664 27.252C23.3145 27.3773 23.301 27.5151 23.3274 27.6482C23.3539 27.7812 23.4192 27.9034 23.5151 27.9993C23.611 28.0952 23.7332 28.1605 23.8662 28.1869C23.9992 28.2134 24.1371 28.1998 24.2624 28.1479C24.3877 28.096 24.4948 28.0081 24.5701 27.8953C24.6455 27.7826 24.6857 27.65 24.6857 27.5144H25.3714C25.3714 27.8781 25.2269 28.2269 24.9697 28.4841C24.7125 28.7413 24.3637 28.8858 24 28.8858Z" fill="#B84DC5"/>
<path d="M24.0925 17.2149C24.0322 17.2332 23.9677 17.2332 23.9074 17.2149L21.1474 16.4263L20.9588 17.9143H27.0411L26.8525 16.4263L24.0925 17.2149Z" fill="#B84DC5"/>
<path d="M15.8331 32.3144C15.7932 32.2044 15.7723 32.0885 15.7714 31.9715V31.6287C15.772 31.447 15.8444 31.2729 15.9728 31.1444C16.1013 31.0159 16.2754 30.9435 16.4571 30.943V29.9487C16.2068 29.9999 15.9712 30.1063 15.7673 30.2603C15.5635 30.4143 15.3966 30.6119 15.279 30.8387C15.1613 31.0654 15.0958 31.3156 15.0873 31.571C15.0788 31.8263 15.1274 32.0803 15.2297 32.3144H15.8331Z" fill="#B84DC5"/>
<path d="M14.4 33.0001H33.6V33.6858H14.4V33.0001Z" fill="#B84DC5"/>
<path d="M32.2286 31.6287V31.9715C32.2276 32.0885 32.2068 32.2044 32.1668 32.3144H32.7703C32.8642 32.0979 32.9132 31.8646 32.9143 31.6287C32.9133 31.2338 32.7764 30.8512 32.5267 30.5453C32.2769 30.2394 31.9296 30.0287 31.5428 29.9487V30.943C31.7245 30.9435 31.8986 31.0159 32.0271 31.1444C32.1556 31.2729 32.228 31.447 32.2286 31.6287Z" fill="#B84DC5"/>
<path d="M32.2286 27.1715C32.228 26.9589 32.1618 26.7516 32.0391 26.578C31.9164 26.4043 31.7431 26.2728 31.5428 26.2012V29.2561C31.7804 29.2901 32.0115 29.3595 32.2286 29.4618V27.1715Z" fill="#B84DC5"/>
<path d="M16.4571 26.2012C16.2568 26.2728 16.0835 26.4043 15.9608 26.578C15.8381 26.7516 15.7719 26.9589 15.7714 27.1715V29.4618C15.9884 29.3595 16.2195 29.2901 16.4571 29.2561V26.2012Z" fill="#B84DC5"/>
<path d="M16.4571 31.9715C16.4571 32.0625 16.4932 32.1497 16.5575 32.214C16.6218 32.2783 16.709 32.3144 16.7999 32.3144H31.1999C31.2909 32.3144 31.3781 32.2783 31.4424 32.214C31.5067 32.1497 31.5428 32.0625 31.5428 31.9715V31.6287H16.4571V31.9715Z" fill="#B84DC5"/>
<path d="M22.0697 23.4H25.9268C26.0168 23.3334 26.1017 23.2601 26.1805 23.1805C26.468 22.8949 26.696 22.5552 26.8514 22.1809C27.0068 21.8066 27.0864 21.4052 27.0857 21V20.3143C27.2675 20.3143 27.4419 20.242 27.5705 20.1134C27.6991 19.9848 27.7714 19.8104 27.7714 19.6285C27.7714 19.4467 27.6991 19.2723 27.5705 19.1437C27.4419 19.0151 27.2675 18.9428 27.0857 18.9428V18.6H20.9142V18.9428C20.7324 18.9428 20.558 19.0151 20.4294 19.1437C20.3008 19.2723 20.2285 19.4467 20.2285 19.6285C20.2285 19.8104 20.3008 19.9848 20.4294 20.1134C20.558 20.242 20.7324 20.3143 20.9142 20.3143V21C20.9163 21.4608 21.0211 21.9153 21.2209 22.3304C21.4208 22.7456 21.7108 23.111 22.0697 23.4ZM25.0285 19.9714C25.0285 19.8805 25.0646 19.7933 25.1289 19.729C25.1932 19.6647 25.2804 19.6285 25.3714 19.6285C25.4623 19.6285 25.5495 19.6647 25.6138 19.729C25.6781 19.7933 25.7142 19.8805 25.7142 19.9714V20.6571C25.7142 20.748 25.6781 20.8353 25.6138 20.8996C25.5495 20.9639 25.4623 21 25.3714 21C25.2804 21 25.1932 20.9639 25.1289 20.8996C25.0646 20.8353 25.0285 20.748 25.0285 20.6571V19.9714ZM22.2857 19.9714C22.2857 19.8805 22.3218 19.7933 22.3861 19.729C22.4504 19.6647 22.5376 19.6285 22.6285 19.6285C22.7194 19.6285 22.8067 19.6647 22.871 19.729C22.9353 19.7933 22.9714 19.8805 22.9714 19.9714V20.6571C22.9714 20.748 22.9353 20.8353 22.871 20.8996C22.8067 20.9639 22.7194 21 22.6285 21C22.5376 21 22.4504 20.9639 22.3861 20.8996C22.3218 20.8353 22.2857 20.748 22.2857 20.6571V19.9714ZM22.9714 22.0285C22.9714 22.1139 23.3362 22.3714 23.9999 22.3714C24.6637 22.3714 25.0285 22.1139 25.0285 22.0285H25.7142C25.7142 22.6148 24.9774 23.0571 23.9999 23.0571C23.0225 23.0571 22.2857 22.6148 22.2857 22.0285H22.9714Z" fill="#B84DC5"/>
<path d="M27.4285 15.6858V18.2572H28.1143V15.5143L24 13.8L19.8857 15.5143L24 16.5429L27.4285 15.6858Z" fill="#B84DC5"/>
</svg>
