<svg width="26" height="26" viewBox="0 0 26 26" fill="none" xmlns="http://www.w3.org/2000/svg">
<g clip-path="url(#clip0_1_681)">
<path d="M17.0776 21.1614C18.2119 21.1614 19.1314 20.2419 19.1314 19.1077V10.7386C19.1314 9.60438 18.2119 8.68488 17.0776 8.68488H2.62876C1.49451 8.68488 0.575012 9.60438 0.575012 10.7386V19.1077C0.575012 20.2419 1.49451 21.1614 2.62876 21.1614H2.82306C3.00076 21.1614 3.13511 21.3222 3.10366 21.497L2.59766 24.3067C2.55961 24.518 2.81361 24.655 2.96931 24.5072L6.30131 21.3443C6.42501 21.2268 6.58906 21.1614 6.75961 21.1614H19.8197H19.8199H17.0776V21.1614Z" fill="#FFA1BC"/>
<path d="M17.0776 8.68488H2.62876C1.49451 8.68488 0.575012 9.60438 0.575012 10.7386V19.1077C0.575012 20.2419 1.49451 21.1614 2.62876 21.1614H2.86106C2.95721 21.1614 3.04941 21.1998 3.11716 21.268L3.31461 21.4667H5.96981L6.10061 21.3547C6.24626 21.2299 6.43171 21.1614 6.62351 21.1614H17.0776C18.2119 21.1614 19.1314 20.2419 19.1314 19.1077V10.7386C19.1314 9.60438 18.2119 8.68488 17.0776 8.68488Z" fill="#F9CDD9"/>
<path d="M2.82304 21.1614C3.00074 21.1614 3.13514 21.3221 3.10364 21.497L2.59764 24.3066C2.55959 24.5179 2.81359 24.655 2.96929 24.5071L6.30129 21.3442C6.42499 21.2268 6.58899 21.1614 6.75954 21.1613H6.75959H2.82304V21.1614Z" fill="#F9CDD9"/>
<path d="M19.8196 8.68488H16.6398C17.774 8.68488 18.6935 9.60437 18.6935 10.7386V19.1077C18.6935 20.2419 17.774 21.1614 16.6398 21.1614H19.8196C20.9538 21.1614 21.8733 20.2419 21.8733 19.1077V10.7386C21.8733 9.60437 20.9539 8.68488 19.8196 8.68488Z" fill="#F9CDD9"/>
<path d="M20.6002 13.9081C21.7345 13.9081 22.654 12.9886 22.654 11.8543V3.48527C22.654 2.35102 21.7345 1.43152 20.6002 1.43152H6.18046C5.04621 1.43152 4.12671 2.35102 4.12671 3.48527V11.8543C4.12671 12.9886 5.04621 13.9081 6.18046 13.9081H6.37476C6.55246 13.9081 6.68681 14.0688 6.65536 14.2437L6.14936 17.0533C6.11131 17.2646 6.36531 17.4017 6.52101 17.2538L9.85301 14.0909C9.97671 13.9735 10.1408 13.908 10.3113 13.908H20.6002V13.9081Z" fill="#F65D88"/>
<path d="M23.3712 1.43143H20.2055C21.3398 1.43143 22.2593 2.35093 22.2593 3.48518V11.8542C22.2593 12.9885 21.3398 13.908 20.2055 13.908H23.3712C24.5055 13.908 25.425 12.9885 25.425 11.8542V3.48523C25.425 2.35093 24.5055 1.43143 23.3712 1.43143Z" fill="#F65D88"/>
<path d="M6.65528 14.2437L6.14928 17.0534C6.11123 17.2647 6.36523 17.4017 6.52093 17.2539L9.85294 14.0909C9.97664 13.9735 10.1407 13.908 10.3112 13.908H6.37478C6.55238 13.9081 6.68678 14.0688 6.65528 14.2437Z" fill="#F65D88"/>
<path d="M22.1315 4.37582H7.62024C7.41309 4.37582 7.24524 4.54367 7.24524 4.75082C7.24524 4.95797 7.41309 5.12582 7.62024 5.12582H22.1315C22.3387 5.12582 22.5065 4.95797 22.5065 4.75082C22.5065 4.54367 22.3386 4.37582 22.1315 4.37582Z" fill="#FFEFF3"/>
<path d="M22.1315 7.29474H7.62024C7.41309 7.29474 7.24524 7.46259 7.24524 7.66974C7.24524 7.87689 7.41309 8.04474 7.62024 8.04474H22.1315C22.3387 8.04474 22.5065 7.87689 22.5065 7.66974C22.5065 7.46259 22.3386 7.29474 22.1315 7.29474Z" fill="#FFEFF3"/>
<path d="M14.8759 10.2138H7.62024C7.41309 10.2138 7.24524 10.3816 7.24524 10.5888C7.24524 10.7959 7.41309 10.9638 7.62024 10.9638H14.8759C15.083 10.9638 15.2509 10.7959 15.2509 10.5888C15.2509 10.3816 15.083 10.2138 14.8759 10.2138Z" fill="#FFEFF3"/>
<path d="M23.3712 1.05652H6.1804C4.8412 1.05652 3.75165 2.14607 3.75165 3.48527V11.8543C3.75165 13.1935 4.8412 14.2831 6.1804 14.2831H6.26715L5.78025 16.9868C5.7343 17.2416 5.8565 17.4953 6.0843 17.6183C6.31105 17.7406 6.59045 17.7049 6.7791 17.5258L10.1111 14.3629C10.1653 14.3114 10.2364 14.283 10.3112 14.283H23.3712C24.7104 14.283 25.8 13.1935 25.8 11.8543V3.48527C25.8 2.14607 24.7104 1.05652 23.3712 1.05652ZM25.05 11.8543C25.05 12.78 24.2969 13.5331 23.3712 13.5331H10.3112C10.0435 13.5331 9.78905 13.6346 9.5948 13.819L6.60105 16.6608L7.0244 14.3101C7.0974 13.905 6.78575 13.5331 6.3748 13.5331H6.18045C5.25475 13.5331 4.5017 12.78 4.5017 11.8543V3.48527C4.5017 2.55957 5.2548 1.80652 6.18045 1.80652H23.3712C24.2969 1.80652 25.05 2.55957 25.05 3.48527V11.8543Z" fill="#F65D88"/>
<path d="M21.8734 15.2861C21.6662 15.2861 21.4984 15.454 21.4984 15.6611V19.1076C21.4984 20.0333 20.7453 20.7864 19.8196 20.7864H6.75946C6.49171 20.7864 6.23726 20.8879 6.04306 21.0723L3.04936 23.9141L3.47266 21.5636C3.54561 21.1592 3.23496 20.7864 2.82306 20.7864H2.62876C1.70311 20.7864 0.950012 20.0333 0.950012 19.1076V10.7386C0.950012 9.8798 1.59261 9.1624 2.44476 9.06975C2.65066 9.0474 2.79941 8.86235 2.77706 8.6564C2.75471 8.45055 2.57006 8.3015 2.36371 8.3241C1.13021 8.45825 0.200012 9.4962 0.200012 10.7386V19.1076C0.200012 20.4468 1.28956 21.5364 2.62876 21.5364H2.71546L2.22856 24.2402C2.18266 24.495 2.30491 24.7487 2.53276 24.8716C2.75951 24.9939 3.03886 24.9582 3.22741 24.7791L6.55946 21.6162C6.61371 21.5647 6.68476 21.5363 6.75956 21.5363H19.8196C21.1588 21.5363 22.2484 20.4468 22.2484 19.1076V15.6611C22.2484 15.454 22.0805 15.2861 21.8734 15.2861Z" fill="#F65D88"/>
</g>
<defs>
<clipPath id="clip0_1_681">
<rect width="25.6" height="25.6" fill="white" transform="translate(0.200012 0.200012)"/>
</clipPath>
</defs>
</svg>
