<svg width="48" height="48" viewBox="0 0 48 48" fill="none" xmlns="http://www.w3.org/2000/svg">
<circle cx="24" cy="24" r="24" fill="#FEF6EE"/>
<g clip-path="url(#clip0_1_1017)">
<path d="M17.25 23.4C17.7038 23.4 18.1146 23.2179 18.4181 22.9255L20.0832 23.758C20.0748 23.8258 20.0625 23.8924 20.0625 23.9625C20.0625 24.8929 20.8195 25.65 21.75 25.65C22.6805 25.65 23.4375 24.8929 23.4375 23.9625C23.4375 23.7027 23.3736 23.4596 23.2683 23.2396L25.5271 20.9808C25.7471 21.0861 25.9903 21.15 26.25 21.15C27.1805 21.15 27.9375 20.3929 27.9375 19.4625C27.9375 19.2873 27.9031 19.1216 27.8533 18.9627L29.8159 17.4911C30.0836 17.6699 30.4046 17.775 30.75 17.775C31.6805 17.775 32.4375 17.0179 32.4375 16.0875C32.4375 15.157 31.6805 14.4 30.75 14.4C29.8195 14.4 29.0625 15.157 29.0625 16.0875C29.0625 16.2627 29.0969 16.4283 29.1467 16.5873L27.1841 18.0589C26.9164 17.88 26.5954 17.775 26.25 17.775C25.3195 17.775 24.5625 18.532 24.5625 19.4625C24.5625 19.7222 24.6264 19.9653 24.7317 20.1854L22.4729 22.4442C22.2529 22.3388 22.0097 22.275 21.75 22.275C21.2962 22.275 20.8854 22.457 20.5819 22.7494L18.9168 21.917C18.9252 21.8491 18.9375 21.7825 18.9375 21.7125C18.9375 20.782 18.1805 20.025 17.25 20.025C16.3195 20.025 15.5625 20.782 15.5625 21.7125C15.5625 22.6429 16.3195 23.4 17.25 23.4Z" fill="#F49C4E"/>
<path d="M33.0375 32.475H32.4375V20.5875C32.4375 20.2766 32.1859 20.025 31.875 20.025H29.625C29.3142 20.025 29.0625 20.2766 29.0625 20.5875V32.475H27.9375V23.9625C27.9375 23.6516 27.6859 23.4 27.375 23.4H25.125C24.8142 23.4 24.5625 23.6516 24.5625 23.9625V32.475H23.4375V28.4625C23.4375 28.1516 23.1859 27.9 22.875 27.9H20.625C20.3142 27.9 20.0625 28.1516 20.0625 28.4625V32.475H18.9375V26.2125C18.9375 25.9016 18.6859 25.65 18.375 25.65H16.125C15.8142 25.65 15.5625 25.9016 15.5625 26.2125V32.475H14.9625C14.6517 32.475 14.4 32.7266 14.4 33.0375C14.4 33.3483 14.6517 33.6 14.9625 33.6H33.0375C33.3484 33.6 33.6 33.3483 33.6 33.0375C33.6 32.7266 33.3484 32.475 33.0375 32.475Z" fill="#F49C4E"/>
</g>
<defs>
<clipPath id="clip0_1_1017">
<rect width="19.2" height="19.2" fill="white" transform="translate(14.4 14.4)"/>
</clipPath>
</defs>
</svg>
