<svg width="26" height="26" viewBox="0 0 26 26" fill="none" xmlns="http://www.w3.org/2000/svg">
<path d="M21.6033 21.6034C21.6033 20.6764 22.3549 19.9247 23.282 19.9247H25.8L25.7979 19.0854C25.0328 18.0664 23.8154 17.4067 22.4426 17.4067C21.1479 17.4067 19.9926 17.9942 19.2237 18.9163C18.9094 19.2931 18.4406 19.5051 17.95 19.5051H2.71802C1.55931 19.5051 0.619659 20.4447 0.619659 21.6034C0.619659 22.7621 1.55931 23.7018 2.71802 23.7018H17.95C18.4406 23.7018 18.9094 23.9137 19.2237 24.2906C19.9926 25.2126 21.1479 25.8001 22.4426 25.8001C23.8154 25.8001 25.0328 25.1404 25.7979 24.1215L25.8 23.2821H23.282C22.3549 23.2821 21.6033 22.5305 21.6033 21.6034Z" fill="#F4A45D"/>
<path d="M21.6033 16.6449V14.8885H9.85245V18.6656H17.95C18.1972 18.6656 18.4268 18.5607 18.5791 18.3781C18.7671 18.1528 18.9765 17.9522 19.1964 17.7658C18.8859 17.6429 18.6656 17.3411 18.6656 16.9869C18.6656 16.5232 19.0412 16.1476 19.5049 16.1476C19.9686 16.1476 20.3442 16.5232 20.3442 16.9869C20.3442 17.0016 20.3409 17.015 20.3401 17.0293C20.74 16.8451 21.1651 16.7192 21.6033 16.6449ZM11.5311 18.2459H10.6918V17.4066H11.5311V18.2459ZM11.5311 16.5672H10.6918V15.7279H11.5311V16.5672ZM16.1475 17.8263C15.6838 17.8263 15.3082 17.4506 15.3082 16.9869C15.3082 16.5232 15.6838 16.1476 16.1475 16.1476C16.6113 16.1476 16.9869 16.5232 16.9869 16.9869C16.9869 17.4506 16.6113 17.8263 16.1475 17.8263Z" fill="#F4A45D"/>
<path d="M2.09817 7.90053C2.17329 8.13554 2.27233 8.37308 2.39362 8.60809L2.50022 8.81457L1.9773 9.69379L3.29633 11.0128L4.17597 10.4899L4.38286 10.5973C4.61704 10.7182 4.85458 10.8177 5.08917 10.8928L5.31076 10.9633L5.56214 11.9508H7.42759L7.67897 10.9629L7.90056 10.8924C8.13515 10.8172 8.37269 10.7178 8.60686 10.5969L8.81376 10.4895L9.52511 10.9125H9.79328L11.0124 9.69379L10.4895 8.81457L10.5961 8.60809C10.7174 8.37308 10.8164 8.13554 10.8916 7.90053L10.9625 7.67894L11.9508 7.42798V5.56253L10.9629 5.31157L10.892 5.08998C10.8169 4.85497 10.7178 4.61743 10.5965 4.38241L10.4899 4.17594L11.0128 3.29672L9.69382 1.97769L8.81418 2.5006L8.60729 2.39317C8.37311 2.2723 8.13557 2.17284 7.90098 2.09772L7.67939 2.02721L7.42801 1.03931H5.56256L5.31118 2.02721L5.08917 2.09772C4.85458 2.17284 4.61704 2.2723 4.38286 2.39317L4.17597 2.5006L3.29675 1.97769L1.97772 3.29672L2.50064 4.17594L2.39404 4.38241C2.27275 4.61743 2.17371 4.85497 2.09859 5.08998L2.02725 5.31157L1.03934 5.56211V7.42756L2.02725 7.67852L2.09817 7.90053ZM6.49507 3.13767C8.34919 3.13767 9.85245 4.64093 9.85245 6.49504C9.85245 8.34916 8.34919 9.85242 6.49507 9.85242C4.64096 9.85242 3.1377 8.34916 3.1377 6.49504C3.1377 4.64093 4.64096 3.13767 6.49507 3.13767Z" fill="#F4A45D"/>
<path d="M21.6033 9.8526H12.0402L9.85245 12.0404V14.0493H21.6033V9.8526ZM11.9508 12.7903C11.4871 12.7903 11.1115 12.4147 11.1115 11.951C11.1115 11.4872 11.4871 11.1116 11.9508 11.1116C12.4145 11.1116 12.7902 11.4872 12.7902 11.951C12.7902 12.4147 12.4145 12.7903 11.9508 12.7903ZM15.3082 12.7903C14.8444 12.7903 14.4688 12.4147 14.4688 11.951C14.4688 11.4872 14.8444 11.1116 15.3082 11.1116C15.7719 11.1116 16.1475 11.4872 16.1475 11.951C16.1475 12.4147 15.7719 12.7903 15.3082 12.7903ZM20.7639 13.21H19.9246V12.3706H20.7639V13.21ZM20.7639 11.5313H19.9246V10.6919H20.7639V11.5313Z" fill="#F4A45D"/>
<path d="M12.7901 8.08026L11.6142 8.37948C11.5643 8.51294 11.5085 8.64765 11.4464 8.78069L11.5844 9.01319H21.6033V5.23614C21.6033 5.00448 21.4148 4.81647 21.1836 4.81647H12.4229L12.7901 4.91005V8.08026ZM19.5049 6.07548C19.9686 6.07548 20.3442 6.45109 20.3442 6.91483C20.3442 7.37857 19.9686 7.75417 19.5049 7.75417C19.0412 7.75417 18.6655 7.37857 18.6655 6.91483C18.6655 6.45109 19.0412 6.07548 19.5049 6.07548ZM16.1475 6.07548C16.6113 6.07548 16.9869 6.45109 16.9869 6.91483C16.9869 7.37857 16.6113 7.75417 16.1475 7.75417C15.6838 7.75417 15.3082 7.37857 15.3082 6.91483C15.3082 6.45109 15.6838 6.07548 16.1475 6.07548Z" fill="#F4A45D"/>
<path d="M6.49506 8.17384C7.42217 8.17384 8.17374 7.42227 8.17374 6.49516C8.17374 5.56804 7.42217 4.81647 6.49506 4.81647C5.56794 4.81647 4.81637 5.56804 4.81637 6.49516C4.81637 7.42227 5.56794 8.17384 6.49506 8.17384Z" fill="#F4A45D"/>
<path d="M3.55736 15.728C2.86323 15.728 2.29835 16.2929 2.29835 16.987C2.29835 17.6812 2.86323 18.246 3.55736 18.246C4.10378 18.246 4.56542 17.8939 4.73916 17.4067H9.0131V16.5673H4.73916C4.56542 16.0801 4.10378 15.728 3.55736 15.728Z" fill="#F4A45D"/>
<path d="M2.64079 14.469H9.0131V13.6296H2.64079C2.46705 13.1424 2.00541 12.7903 1.459 12.7903C0.76486 12.7903 0.199982 13.3552 0.199982 14.0493C0.199982 14.7434 0.76486 15.3083 1.459 15.3083C2.00541 15.3083 2.46705 14.9562 2.64079 14.469Z" fill="#F4A45D"/>
<path d="M19.5049 2.64089V3.97712H20.3442V2.64089C20.8315 2.46714 21.1836 2.0055 21.1836 1.45909C21.1836 0.764952 20.6187 0.200073 19.9246 0.200073C19.2304 0.200073 18.6656 0.764952 18.6656 1.45909C18.6656 2.0055 19.0177 2.46714 19.5049 2.64089Z" fill="#F4A45D"/>
<path d="M15.3082 2.64089V3.97712H16.1475V2.64089C16.6348 2.46714 16.9869 2.0055 16.9869 1.45909C16.9869 0.764952 16.422 0.200073 15.7278 0.200073C15.0337 0.200073 14.4688 0.764952 14.4688 1.45909C14.4688 2.0055 14.8209 2.46714 15.3082 2.64089Z" fill="#F4A45D"/>
</svg>
